<svg width="127" height="112" viewBox="0 0 127 112" fill="none" xmlns="http://www.w3.org/2000/svg">
<circle cx="67.9203" cy="55.7272" r="55.7272" fill="#FA7878"/>
<path d="M55.3729 80.2716C52.396 82.8318 49.0619 84.7965 45.3705 86.1659C41.6792 87.5352 37.8539 88.2199 33.8947 88.2199C30.8582 88.2199 27.926 87.818 25.098 87.0143C22.2997 86.2403 19.6652 85.1388 17.1943 83.7099C14.7533 82.2513 12.5206 80.5098 10.4964 78.4855C8.47209 76.4612 6.73061 74.2286 5.27194 71.7875C3.84304 69.3167 2.7267 66.6822 1.92295 63.8839C1.14896 61.0559 0.761963 58.1236 0.761963 55.0872C0.761963 52.0508 1.14896 49.1186 1.92295 46.2905C2.7267 43.4625 3.84304 40.828 5.27194 38.3869C6.73061 35.9161 8.47209 33.6686 10.4964 31.6443C12.5206 29.62 14.7533 27.8934 17.1943 26.4645C19.6652 25.0058 22.2997 23.8895 25.098 23.1155C27.926 22.3118 30.8582 21.9099 33.8947 21.9099C37.8539 21.9099 41.6792 22.5946 45.3705 23.9639C49.0619 25.3035 52.396 27.2683 55.3729 29.8582L48.5856 41.0215C46.7101 38.9972 44.4924 37.4492 41.9322 36.3775C39.3721 35.2761 36.6929 34.7254 33.8947 34.7254C31.0666 34.7254 28.4172 35.2612 25.9464 36.3329C23.4756 37.4045 21.3173 38.8632 19.4717 40.7089C17.626 42.5248 16.1673 44.683 15.0956 47.1836C14.024 49.6544 13.4881 52.289 13.4881 55.0872C13.4881 57.8855 14.024 60.52 15.0956 62.9908C16.1673 65.4319 17.626 67.5752 19.4717 69.4209C21.3173 71.2666 23.4756 72.7252 25.9464 73.7969C28.4172 74.8686 31.0666 75.4044 33.8947 75.4044C36.6929 75.4044 39.3721 74.8686 41.9322 73.7969C44.4924 72.6955 46.7101 71.1326 48.5856 69.1083L55.3729 80.2716Z" fill="black"/>
<path d="M126.371 86.8357H113.601V41.1108C113.601 40.2177 113.422 39.3842 113.065 38.6102C112.737 37.8362 112.276 37.1664 111.681 36.6008C111.115 36.0054 110.445 35.544 109.671 35.2165C108.897 34.8891 108.064 34.7254 107.171 34.7254C106.278 34.7254 105.444 34.8891 104.67 35.2165C103.896 35.544 103.211 36.0054 102.616 36.6008C102.05 37.1664 101.604 37.8362 101.276 38.6102C100.949 39.3842 100.785 40.2177 100.785 41.1108V86.8357H87.9697V41.1108C87.9697 40.2177 87.806 39.3842 87.4785 38.6102C87.1511 37.8362 86.6896 37.1664 86.0943 36.6008C85.5287 36.0054 84.8589 35.544 84.0849 35.2165C83.3109 34.8891 82.4774 34.7254 81.5843 34.7254C80.6912 34.7254 79.8577 34.8891 79.0837 35.2165C78.3097 35.544 77.625 36.0054 77.0297 36.6008C76.4641 37.1664 76.0175 37.8362 75.6901 38.6102C75.3626 39.3842 75.1989 40.2177 75.1989 41.1108V86.8357H62.3834V41.1108C62.3834 38.4613 62.8746 35.9756 63.857 33.6537C64.8691 31.3019 66.2385 29.2628 67.9651 27.5362C69.7214 25.7798 71.7606 24.4105 74.0826 23.4281C76.4343 22.416 78.9349 21.9099 81.5843 21.9099C83.9658 21.9099 86.258 22.3415 88.4609 23.2048C90.6638 24.0384 92.6434 25.2589 94.3998 26.8664C96.1561 25.2589 98.1209 24.0384 100.294 23.2048C102.497 22.3415 104.789 21.9099 107.171 21.9099C109.82 21.9099 112.306 22.416 114.628 23.4281C116.979 24.4105 119.019 25.7798 120.745 27.5362C122.502 29.2628 123.871 31.3019 124.853 33.6537C125.865 35.9756 126.371 38.4613 126.371 41.1108V86.8357Z" fill="black"/>
</svg>
